<?xml version="1.0" encoding="UTF-8" standalone="no"?>
<svg
   width="16"
   height="16"
   fill="currentColor"
   class="bi bi-lightbulb"
   viewBox="0 0 16 16"
   version="1.1"
   id="svg826"
   sodipodi:docname="lightedlightbulb.svg"
   inkscape:version="1.1.2 (b8e25be8, 2022-02-05)"
   xmlns:inkscape="http://www.inkscape.org/namespaces/inkscape"
   xmlns:sodipodi="http://sodipodi.sourceforge.net/DTD/sodipodi-0.dtd"
   xmlns="http://www.w3.org/2000/svg"
   xmlns:svg="http://www.w3.org/2000/svg">
  <defs
     id="defs830" />
  <sodipodi:namedview
     id="namedview828"
     pagecolor="#ffffff"
     bordercolor="#666666"
     borderopacity="1.0"
     inkscape:pageshadow="2"
     inkscape:pageopacity="0.0"
     inkscape:pagecheckerboard="0"
     showgrid="false"
     inkscape:zoom="29.125"
     inkscape:cx="6.4377682"
     inkscape:cy="6.2832618"
     inkscape:window-width="1280"
     inkscape:window-height="688"
     inkscape:window-x="0"
     inkscape:window-y="25"
     inkscape:window-maximized="0"
     inkscape:current-layer="svg826" />
  <path
     d="M2 6a6 6 0 1 1 10.174 4.31c-.203.196-.359.4-.453.619l-.762 1.769A.5.5 0 0 1 10.5 13a.5.5 0 0 1 0 1 .5.5 0 0 1 0 1l-.224.447a1 1 0 0 1-.894.553H6.618a1 1 0 0 1-.894-.553L5.5 15a.5.5 0 0 1 0-1 .5.5 0 0 1 0-1 .5.5 0 0 1-.46-.302l-.761-1.77a1.964 1.964 0 0 0-.453-.618A5.984 5.984 0 0 1 2 6zm6-5a5 5 0 0 0-3.479 8.592c.263.254.514.564.676.941L5.83 12h4.342l.632-1.467c.162-.377.413-.687.676-.941A5 5 0 0 0 8 1z"
     id="path824" />
  <path
     style="fill:#ffff00;stroke:#c00000;stroke-width:0"
     d="M 5.5620874,11.321888 C 5.0607796,10.155668 5.0026294,10.060073 4.4238538,9.450719 3.7332769,8.7236563 3.2971463,7.8871945 3.1012774,6.9141288 3.014265,6.4818558 3.0143364,5.4869988 3.1014088,5.082367 3.5412516,3.0383848 5.0000416,1.5557899 7.0042918,1.1157957 7.3511883,1.0396413 8.2884251,1.0093306 8.6580113,1.0623136 9.5155571,1.1852495 10.346158,1.5297485 11.028907,2.045664 c 0.546015,0.4125928 1.156824,1.1642342 1.454218,1.7895114 0.450637,0.9474739 0.598051,1.9782491 0.426459,2.9819587 -0.170784,0.9989741 -0.607124,1.8661902 -1.316282,2.6160814 -0.59351,0.6275995 -0.640915,0.7035545 -1.087683,1.7427505 -0.146135,0.339914 -0.285467,0.660515 -0.309626,0.712446 l -0.04392,0.09442 H 7.999133 5.8461988 Z"
     id="path1326" />
</svg>
